<?xml version="1.0" encoding="UTF-8"?>
<svg version="1.1" xmlns="http://www.w3.org/2000/svg" width="8334" height="8334">
<path d="M0 0 C58.54371688 -0.37663836 117.08755641 -0.72688747 175.63215637 -0.93154907 C176.49875996 -0.93458633 177.36536354 -0.93762358 178.25822784 -0.94075288 C197.09227997 -1.00659827 215.92634499 -1.06754207 234.76042921 -1.12343725 C243.99678313 -1.15087843 253.23313357 -1.17940264 262.46948242 -1.20849609 C263.38860565 -1.21137279 264.30772888 -1.21424949 265.25470433 -1.21721336 C295.04144353 -1.31094835 324.82726403 -1.47618406 354.61344675 -1.67853886 C385.22508427 -1.88612351 415.83621349 -2.02149467 446.44854297 -2.06612978 C450.77318982 -2.0724691 455.09783494 -2.07963311 459.42247963 -2.08729935 C460.27362383 -2.08878265 461.12476802 -2.09026596 462.00170447 -2.09179421 C475.69817666 -2.1177836 489.39307622 -2.21979234 503.08890728 -2.35030475 C516.86128564 -2.4799216 530.63210669 -2.52927392 544.40507349 -2.4970303 C552.58741874 -2.48030554 560.76406121 -2.52477728 568.94537506 -2.65754595 C575.05960933 -2.74998098 581.16775221 -2.72706761 587.28254954 -2.65977569 C589.75263718 -2.65048348 592.22320663 -2.67838122 594.69234648 -2.74743001 C609.79249375 -3.14510552 609.79249375 -3.14510552 616 0 C621.59578532 5.41209525 624.80554508 12.36038542 627.85784832 19.42039876 C629.33919123 22.76607874 631.11978186 25.79999603 633.0234375 28.921875 C634.14183867 30.86388489 635.25904388 32.80658406 636.375 34.75 C637.64319629 36.95314392 638.91142645 39.15626835 640.1796875 41.359375 C640.81100586 42.45701172 641.44232422 43.55464844 642.09277344 44.68554688 C645.22364924 50.12650565 648.36216542 55.56305248 651.5 61 C652.75003758 63.16664498 654.00003756 65.33331166 655.25 67.5 C655.86875 68.5725 656.4875 69.645 657.125 70.75 C707.74999999 158.49999999 707.74999999 158.49999999 709.62524414 161.75048828 C710.87435518 163.91557071 712.12354129 166.08060982 713.37280273 168.24560547 C716.51202309 173.68615706 719.64990563 179.12747216 722.78515625 184.5703125 C728.83055159 195.06232094 734.89110219 205.54481676 741 216 C747.74701194 227.54729516 754.43339318 239.12902027 761.10888672 250.71777344 C764.23680148 256.14659942 767.36858448 261.57319281 770.5 267 C771.75001879 269.16665583 773.00001878 271.3333225 774.25 273.5 C775.178125 275.10875 775.178125 275.10875 776.125 276.75 C826.75 364.50000001 826.75 364.50000001 828.62524414 367.75048828 C829.87435518 369.91557071 831.12354129 372.08060982 832.37280273 374.24560547 C835.51202309 379.68615706 838.64990563 385.12747216 841.78515625 390.5703125 C847.83055159 401.06232094 853.89110219 411.54481676 860 422 C866.74701194 433.54729516 873.43339318 445.12902027 880.10888672 456.71777344 C883.23680148 462.14659942 886.36858448 467.57319281 889.5 473 C890.75001879 475.16665583 892.00001878 477.3333225 893.25 479.5 C894.178125 481.10875 894.178125 481.10875 895.125 482.75 C960.75 596.5 960.75 596.5 962.62524414 599.75048828 C963.87435518 601.91557071 965.12354129 604.08060982 966.37280273 606.24560547 C969.51202309 611.68615706 972.64990563 617.12747216 975.78515625 622.5703125 C981.83055159 633.06232094 987.89110219 643.54481676 994 654 C1000.74701194 665.54729516 1007.43339318 677.12902027 1014.10888672 688.71777344 C1017.23680148 694.14659942 1020.36858448 699.57319281 1023.5 705 C1024.75001879 707.16665583 1026.00001878 709.3333225 1027.25 711.5 C1027.86875 712.5725 1028.4875 713.645 1029.125 714.75 C1079.74999998 802.49999997 1079.74999998 802.49999997 1081.62524414 805.75048828 C1082.87435518 807.91557071 1084.12354129 810.08060982 1085.37280273 812.24560547 C1088.51202309 817.68615706 1091.64990563 823.12747216 1094.78515625 828.5703125 C1100.80747329 839.02206199 1106.84669337 849.46299548 1112.9375 859.875 C1118.35921178 869.14499777 1123.70204915 878.45831752 1129.01922607 887.78845215 C1134.22045129 896.9128284 1139.48027878 906.00132774 1144.78344727 915.06689453 C1150.93766742 925.59084625 1157.02369996 936.15380137 1163.10888672 946.71777344 C1166.23680148 952.14659942 1169.36858448 957.57319281 1172.5 963 C1173.75001879 965.16665583 1175.00001878 967.3333225 1176.25 969.5 C1176.86875 970.5725 1177.4875 971.645 1178.125 972.75 C1213.74999998 1034.49999997 1213.74999998 1034.49999997 1215.62524414 1037.75048828 C1216.87435518 1039.91557071 1218.12354129 1042.08060982 1219.37280273 1044.24560547 C1222.51202309 1049.68615706 1225.64990563 1055.12747216 1228.78515625 1060.5703125 C1234.83055159 1071.06232094 1240.89110219 1081.54481676 1247 1092 C1253.74701194 1103.54729516 1260.43339318 1115.12902027 1267.10888672 1126.71777344 C1270.23680148 1132.14659942 1273.36858448 1137.57319281 1276.5 1143 C1277.75001879 1145.16665583 1279.00001878 1147.3333225 1280.25 1149.5 C1280.86875 1150.5725 1281.4875 1151.645 1282.125 1152.75 C1332.75 1240.5 1332.75 1240.5 1334.62524414 1243.75048828 C1335.87435518 1245.91557071 1337.12354129 1248.08060982 1338.37280273 1250.24560547 C1341.51202309 1255.68615706 1344.64990563 1261.12747216 1347.78515625 1266.5703125 C1353.80747329 1277.02206199 1359.84669337 1287.46299548 1365.9375 1297.875 C1371.35921178 1307.14499777 1376.70204915 1316.45831752 1382.01922607 1325.78845215 C1387.22045129 1334.9128284 1392.48027878 1344.00132774 1397.78344727 1353.06689453 C1403.93766742 1363.59084625 1410.02369996 1374.15380137 1416.10888672 1384.71777344 C1419.23680148 1390.14659942 1422.36858448 1395.57319281 1425.5 1401 C1426.75001879 1403.16665583 1428.00001878 1405.3333225 1429.25 1407.5 C1429.86875 1408.5725 1430.4875 1409.645 1431.125 1410.75 C1466.75000001 1472.50000002 1466.75000001 1472.50000002 1468.62524414 1475.75048828 C1469.87435518 1477.91557071 1471.12354129 1480.08060982 1472.37280273 1482.24560547 C1475.51202309 1487.68615706 1478.64990563 1493.12747216 1481.78515625 1498.5703125 C1487.83055159 1509.06232094 1493.89110219 1519.54481676 1500 1530 C1506.74701194 1541.54729516 1513.43339318 1553.12902027 1520.10888672 1564.71777344 C1523.23680148 1570.14659942 1526.36858448 1575.57319281 1529.5 1581 C1530.75001879 1583.16665583 1532.00001878 1585.3333225 1533.25 1587.5 C1533.86875 1588.5725 1534.4875 1589.645 1535.125 1590.75 C1585.75 1678.49999999 1585.75 1678.49999999 1587.62524414 1681.75048828 C1588.87435518 1683.91557071 1590.12354129 1686.08060982 1591.37280273 1688.24560547 C1594.51202309 1693.68615706 1597.64990563 1699.12747216 1600.78515625 1704.5703125 C1606.80747329 1715.02206199 1612.84669337 1725.46299548 1618.9375 1735.875 C1624.35921178 1745.14499777 1629.70204915 1754.45831752 1635.01922607 1763.78845215 C1640.22045129 1772.9128284 1645.48027878 1782.00132774 1650.78344727 1791.06689453 C1656.93766742 1801.59084625 1663.02369996 1812.15380137 1669.10888672 1822.71777344 C1672.23680148 1828.14659942 1675.36858448 1833.57319281 1678.5 1839 C1679.75001879 1841.16665583 1681.00001878 1843.3333225 1682.25 1845.5 C1682.86875 1846.5725 1683.4875 1847.645 1684.125 1848.75 C1719.75 1910.5 1719.75 1910.5 1721.62524414 1913.75048828 C1722.87435518 1915.91557071 1724.12354129 1918.08060982 1725.37280273 1920.24560547 C1728.51202309 1925.68615706 1731.64990563 1931.12747216 1734.78515625 1936.5703125 C1740.83055159 1947.06232094 1746.89110219 1957.54481676 1753 1968 C1759.74701194 1979.54729516 1766.43339318 1991.12902027 1773.10888672 2002.71777344 C1776.23680148 2008.14659942 1779.36858448 2013.57319281 1782.5 2019 C1783.75001879 2021.16665583 1785.00001878 2023.3333225 1786.25 2025.5 C1786.86875 2026.5725 1787.4875 2027.645 1788.125 2028.75 C1853.75 2142.50000001 1853.75 2142.50000001 1855.62524414 2145.75048828 C1856.87435518 2147.91557071 1858.12354129 2150.08060982 1859.37280273 2152.24560547 C1862.51202309 2157.68615706 1865.64990563 2163.12747216 1868.78515625 2168.5703125 C1874.83055159 2179.06232094 1880.89110219 2189.54481676 1887 2200 C1893.74701194 2211.54729516 1900.43339318 2223.12902027 1907.10888672 2234.71777344 C1910.23680148 2240.14659942 1913.36858448 2245.57319281 1916.5 2251 C1917.75001879 2253.16665583 1919.00001878 2255.3333225 1920.25 2257.5 C1920.86875 2258.5725 1921.4875 2259.645 1922.125 2260.75 C1972.75 2348.49999999 1972.75 2348.49999999 1974.62524414 2351.75048828 C1975.87435518 2353.91557071 1977.12354129 2356.08060982 1978.37280273 2358.24560547 C1981.51202309 2363.68615706 1984.64990563 2369.12747216 1987.78515625 2374.5703125 C1993.83055159 2385.06232094 1999.89110219 2395.54481676 2006 2406 C2012.74701194 2417.54729516 2019.43339318 2429.12902027 2026.10888672 2440.71777344 C2029.23680148 2446.14659942 2032.36858448 2451.57319281 2035.5 2457 C2036.75001879 2459.16665583 2038.00001878 2461.3333225 2039.25 2463.5 C2039.86875 2464.5725 2040.4875 2465.645 2041.125 2466.75 C2106.75 2580.50000001 2106.75 2580.50000001 2108.62524414 2583.75048828 C2109.87435518 2585.91557071 2111.12354129 2588.08060982 2112.37280273 2590.24560547 C2115.51202309 2595.68615706 2118.64990563 2601.12747216 2121.78515625 2606.5703125 C2127.83055159 2617.06232094 2133.89110219 2627.54481676 2140 2638 C2146.74701194 2649.54729516 2153.43339318 2661.12902027 2160.10888672 2672.71777344 C2163.23680148 2678.14659942 2166.36858448 2683.57319281 2169.5 2689 C2170.75001879 2691.16665583 2172.00001878 2693.3333225 2173.25 2695.5 C2173.86875 2696.5725 2174.4875 2697.645 2175.125 2698.75 C2225.75000003 2786.50000005 2225.75000003 2786.50000005 2227.62524414 2789.75048828 C2228.87435518 2791.91557071 2230.12354129 2794.08060982 2231.37280273 2796.24560547 C2234.51202309 2801.68615706 2237.64990563 2807.12747216 2240.78515625 2812.5703125 C2246.80747329 2823.02206199 2252.84669337 2833.46299548 2258.9375 2843.875 C2264.35921178 2853.14499777 2269.70204915 2862.45831752 2275.01922607 2871.78845215 C2280.21184717 2880.89773441 2285.45829674 2889.9739993 2290.75927734 2899.02075195 C2293.88837144 2904.36475735 2296.99296574 2909.72152272 2300.06640625 2915.09765625 C2300.75053361 2916.2921756 2301.43469675 2917.48667445 2302.11889648 2918.68115234 C2303.42637414 2920.96410489 2304.72836335 2923.24990881 2306.02758789 2925.53759766 C2306.61918701 2926.57062012 2307.21078613 2927.60364258 2307.8203125 2928.66796875 C2308.33867676 2929.57828857 2308.85704102 2930.4886084 2309.39111328 2931.42651367 C2311.08054387 2934.12883353 2312.96415968 2936.55108664 2315 2939 C2315.58265625 2938.11441406 2316.1653125 2937.22882813 2316.765625 2936.31640625 C2322.82944633 2927.13907004 2329.09380078 2918.12125796 2335.46777344 2909.15722656 C2337.98680785 2905.61067015 2340.49280425 2902.05493018 2343 2898.5 C2343.99993608 2897.08328822 2344.99993612 2895.66662157 2346 2894.25 C2346.495 2893.54875 2346.99 2892.8475 2347.5 2892.125 C2365 2867.33333333 2382.5 2842.54166667 2400 2817.75 C2400.49491943 2817.04883057 2400.98983887 2816.34766113 2401.49975586 2815.62524414 C2402.50044188 2814.20767346 2403.50125583 2812.79019308 2404.50219727 2811.37280273 C2406.99275451 2807.84569428 2409.48111592 2804.31707783 2411.96484375 2800.78515625 C2417.07232086 2793.52764888 2422.22045023 2786.30420414 2427.4375 2779.125 C2432.4637856 2772.20307811 2437.32203954 2765.18062454 2442.12695312 2758.10375977 C2446.3276599 2751.93570518 2450.66323826 2745.87684777 2455.05249023 2739.84204102 C2459.11528605 2734.24800093 2463.10502119 2728.60648247 2467.0625 2722.9375 C2467.64821777 2722.09856201 2468.23393555 2721.25962402 2468.83740234 2720.39526367 C2469.99978404 2718.72989417 2471.1620578 2717.06444933 2472.32421875 2715.39892578 C2478.94871421 2705.91578295 2485.63830312 2696.48366759 2492.4375 2687.125 C2497.46369893 2680.20301329 2502.32203749 2673.18062756 2507.12695312 2666.10375977 C2511.3276599 2659.93570518 2515.66323826 2653.87684777 2520.05249023 2647.84204102 C2524.11528605 2642.24800093 2528.10502119 2636.60648247 2532.0625 2630.9375 C2532.64821777 2630.09856201 2533.23393555 2629.25962402 2533.83740234 2628.39526367 C2534.99978404 2626.72989417 2536.1620578 2625.06444933 2537.32421875 2623.39892578 C2543.94871421 2613.91578295 2550.63830312 2604.48366759 2557.4375 2595.125 C2562.46369893 2588.20301329 2567.32203749 2581.18062756 2572.12695312 2574.10375977 C2576.3276599 2567.93570518 2580.66323826 2561.87684777 2585.05249023 2555.84204102 C2589.11528605 2550.24800093 2593.10502119 2544.60648247 2597.0625 2538.9375 C2597.64821777 2538.09856201 2598.23393555 2537.25962402 2598.83740234 2536.39526367 C2599.99978404 2534.72989417 2601.1620578 2533.06444933 2602.32421875 2531.39892578 C2608.94871421 2521.91578295 2615.63830312 2512.48366759 2622.4375 2503.125 C2627.46369893 2496.20301329 2632.32203749 2489.18062756 2637.12695312 2482.10375977 C2641.3276599 2475.93570518 2645.66323826 2469.87684777 2650.05249023 2463.84204102 C2654.11528605 2458.24800093 2658.10502119 2452.60648247 2662.0625 2446.9375 C2662.64821777 2446.09856201 2663.23393555 2445.25962402 2663.83740234 2444.39526367 C2664.99978404 2442.72989417 2666.1620578 2441.06444933 2667.32421875 2439.39892578 C2673.94871421 2429.91578295 2680.63830312 2420.48366759 2687.4375 2411.125 C2692.46369893 2404.20301329 2697.32203749 2397.18062756 2702.12695312 2390.10375977 C2706.3276599 2383.93570518 2710.66323826 2377.87684777 2715.05249023 2371.84204102 C2719.11528605 2366.24800093 2723.10502119 2360.60648247 2727.0625 2354.9375 C2727.64821777 2354.09856201 2728.23393555 2353.25962402 2728.83740234 2352.39526367 C2729.99978404 2350.72989417 2731.1620578 2349.06444933 2732.32421875 2347.39892578 C2738.94871421 2337.91578295 2745.63830312 2328.48366759 2752.4375 2319.125 C2757.46369893 2312.20301329 2762.32203749 2305.18062756 2767.12695312 2298.10375977 C2771.32822919 2291.93486927 2775.66376839 2285.87470601 2780.0546875 2279.83984375 C2784.10074038 2274.27045681 2788.0651434 2268.64840565 2792 2263 C2796.45894688 2256.59927354 2800.97302527 2250.24525634 2805.5625 2243.9375 C2809.98092074 2237.86083419 2814.27971825 2231.71583052 2818.5 2225.5 C2823.2350738 2218.52595942 2828.09438349 2211.65896933 2833.05249023 2204.84204102 C2837.11528605 2199.24800093 2841.10502119 2193.60648247 2845.0625 2187.9375 C2845.64821777 2187.09856201 2846.23393555 2186.25962402 2846.83740234 2185.39526367 C2847.99978404 2183.72989417 2849.1620578 2182.06444933 2850.32421875 2180.39892578 C2856.94871421 2170.91578295 2863.63830312 2161.48366759 2870.4375 2152.125 C2875.46369893 2145.20301329 2880.32203749 2138.18062756 2885.12695312 2131.10375977 C2889.3276599 2124.93570518 2893.66323826 2118.87684777 2898.05249023 2112.84204102 C2902.11528605 2107.24800093 2906.10502119 2101.60648247 2910.0625 2095.9375 C2910.64821777 2095.09856201 2911.23393555 2094.25962402 2911.83740234 2093.39526367 C2912.99978404 2091.72989417 2914.1620578 2090.06444933 2915.32421875 2088.39892578 C2921.94871421 2078.91578295 2928.63830312 2069.48366759 2935.4375 2060.125 C2940.46369893 2053.20301329 2945.32203749 2046.18062756 2950.12695312 2039.10375977 C2954.3276599 2032.93570518 2958.66323826 2026.87684777 2963.05249023 2020.84204102 C2967.11528605 2015.24800093 2971.10502119 2009.60648247 2975.0625 2003.9375 C2975.64821777 2003.09856201 2976.23393555 2002.25962402 2976.83740234 2001.39526367 C2977.99978404 1999.72989417 2979.1620578 1998.06444933 2980.32421875 1996.39892578 C2986.94871421 1986.91578295 2993.63830312 1977.48366759 3000.4375 1968.125 C3005.46369893 1961.20301329 3010.32203749 1954.18062756 3015.12695312 1947.10375977 C3019.3276599 1940.93570518 3023.66323826 1934.87684777 3028.05249023 1928.84204102 C3032.11528605 1923.24800093 3036.10502119 1917.60648247 3040.0625 1911.9375 C3040.64821777 1911.09856201 3041.23393555 1910.25962402 3041.83740234 1909.39526367 C3042.99978404 1907.72989417 3044.1620578 1906.06444933 3045.32421875 1904.39892578 C3051.94871739 1894.91577839 3058.63848296 1885.48380228 3065.4375 1876.125 C3070.47072941 1869.19077938 3075.35037559 1862.16377194 3080.16650391 1855.07739258 C3085.67535962 1846.97895415 3091.32657976 1838.98367785 3097 1831 C3100.67338202 1832.22446067 3101.22409589 1833.37462168 3103.37109375 1836.53125 C3104.02174805 1837.4785498 3104.67240234 1838.42584961 3105.34277344 1839.40185547 C3106.0340332 1840.42424316 3106.72529297 1841.44663086 3107.4375 1842.5 C3108.88882771 1844.61752699 3110.34065435 1846.73471211 3111.79296875 1848.8515625 C3112.50888184 1849.89989258 3113.22479492 1850.94822266 3113.96240234 1852.02832031 C3116.68813666 1856.00359446 3119.46161014 1859.94353474 3122.25 1863.875 C3123.21358072 1865.23695154 3124.17712268 1866.5989305 3125.140625 1867.9609375 C3125.61048828 1868.62448242 3126.08035156 1869.28802734 3126.56445312 1869.97167969 C3129.04650012 1873.47862636 3131.52292454 1876.98954091 3134 1880.5 C3136.97522674 1884.71578917 3139.95099795 1888.93118781 3142.9296875 1893.14453125 C3148.90402057 1901.59757697 3154.85199034 1910.06859593 3160.78417969 1918.55126953 C3166.01199197 1926.02389806 3171.2676338 1933.47659624 3176.53222656 1940.92333984 C3179.02320986 1944.44767516 3181.51144903 1947.97394701 3184 1951.5 C3184.99998722 1952.91667568 3185.99998722 1954.33334236 3187 1955.75 C3189 1958.58333333 3191 1961.41666667 3193 1964.25 C3193.49483887 1964.9510083 3193.98967773 1965.6520166 3194.49951172 1966.37426758 C3195.50119043 1967.79333958 3196.5028179 1969.21244775 3197.50439453 1970.6315918 C3199.97829495 1974.13675274 3202.45303366 1977.64131515 3204.9296875 1981.14453125 C3210.90402057 1989.59757697 3216.85199034 1998.06859593 3222.78417969 2006.55126953 C3228.01199197 2014.02389806 3233.2676338 2021.47659624 3238.53222656 2028.92333984 C3241.52533391 2033.15809884 3244.51473609 2037.39547453 3247.50488281 2041.63232422 C3249.97864556 2045.13722329 3252.45320299 2048.64155467 3254.9296875 2052.14453125 C3260.90402057 2060.59757697 3266.85199034 2069.06859593 3272.78417969 2077.55126953 C3278.01199197 2085.02389806 3283.2676338 2092.47659624 3288.53222656 2099.92333984 C3291.52533391 2104.15809884 3294.51473609 2108.39547453 3297.50488281 2112.63232422 C3299.97864556 2116.13722329 3302.45320299 2119.64155467 3304.9296875 2123.14453125 C3310.90402057 2131.59757697 3316.85199034 2140.06859593 3322.78417969 2148.55126953 C3328.01199197 2156.02389806 3333.2676338 2163.47659624 3338.53222656 2170.92333984 C3341.52533391 2175.15809884 3344.51473609 2179.39547453 3347.50488281 2183.63232422 C3349.97864556 2187.13722329 3352.45320299 2190.64155467 3354.9296875 2194.14453125 C3360.90402057 2202.59757697 3366.85199034 2211.06859593 3372.78417969 2219.55126953 C3378.01199197 2227.02389806 3383.2676338 2234.47659624 3388.53222656 2241.92333984 C3391.52533391 2246.15809884 3394.51473609 2250.39547453 3397.50488281 2254.63232422 C3399.97864556 2258.13722329 3402.45320299 2261.64155467 3404.9296875 2265.14453125 C3410.90402057 2273.59757697 3416.85199034 2282.06859593 3422.78417969 2290.55126953 C3428.01199197 2298.02389806 3433.2676338 2305.47659624 3438.53222656 2312.92333984 C3441.52533391 2317.15809884 3444.51473609 2321.39547453 3447.50488281 2325.63232422 C3449.97864556 2329.13722329 3452.45320299 2332.64155467 3454.9296875 2336.14453125 C3460.90402057 2344.59757697 3466.85199034 2353.06859593 3472.78417969 2361.55126953 C3478.01199197 2369.02389806 3483.2676338 2376.47659624 3488.53222656 2383.92333984 C3491.52533391 2388.15809884 3494.51473609 2392.39547453 3497.50488281 2396.63232422 C3499.97864556 2400.13722329 3502.45320299 2403.64155467 3504.9296875 2407.14453125 C3510.90402057 2415.59757697 3516.85199034 2424.06859593 3522.78417969 2432.55126953 C3528.01199197 2440.02389806 3533.2676338 2447.47659624 3538.53222656 2454.92333984 C3541.52533391 2459.15809884 3544.51473609 2463.39547453 3547.50488281 2467.63232422 C3549.97864556 2471.13722329 3552.45320299 2474.64155467 3554.9296875 2478.14453125 C3560.90402057 2486.59757697 3566.85199034 2495.06859593 3572.78417969 2503.55126953 C3578.01199197 2511.02389806 3583.2676338 2518.47659624 3588.53222656 2525.92333984 C3591.52533391 2530.15809884 3594.51473609 2534.39547453 3597.50488281 2538.63232422 C3599.97864556 2542.13722329 3602.45320299 2545.64155467 3604.9296875 2549.14453125 C3610.90402057 2557.59757697 3616.85199034 2566.06859593 3622.78417969 2574.55126953 C3628.01199197 2582.02389806 3633.2676338 2589.47659624 3638.53222656 2596.92333984 C3641.02320986 2600.44767516 3643.51144903 2603.97394701 3646 2607.5 C3646.99998722 2608.91667568 3647.99998722 2610.33334236 3649 2611.75 C3651 2614.58333333 3653 2617.41666667 3655 2620.25 C3655.49483887 2620.9510083 3655.98967773 2621.6520166 3656.49951172 2622.37426758 C3657.50119043 2623.79333958 3658.5028179 2625.21244775 3659.50439453 2626.6315918 C3661.97829495 2630.13675274 3664.45303366 2633.64131515 3666.9296875 2637.14453125 C3672.90402057 2645.59757697 3678.85199034 2654.06859593 3684.78417969 2662.55126953 C3690.01199197 2670.02389806 3695.2676338 2677.47659624 3700.53222656 2684.92333984 C3703.52533391 2689.15809884 3706.51473609 2693.39547453 3709.50488281 2697.63232422 C3711.97864556 2701.13722329 3714.45320299 2704.64155467 3716.9296875 2708.14453125 C3722.90402057 2716.59757697 3728.85199034 2725.06859593 3734.78417969 2733.55126953 C3740.01199197 2741.02389806 3745.2676338 2748.47659624 3750.53222656 2755.92333984 C3753.52533391 2760.15809884 3756.51473609 2764.39547453 3759.50488281 2768.63232422 C3761.97864556 2772.13722329 3764.45320299 2775.64155467 3766.9296875 2779.14453125 C3772.90402057 2787.59757697 3778.85199034 2796.06859593 3784.78417969 2804.55126953 C3790.01199197 2812.02389806 3795.2676338 2819.47659624 3800.53222656 2826.92333984 C3803.52533391 2831.15809884 3806.51473609 2835.39547453 3809.50488281 2839.63232422 C3811.97864556 2843.13722329 3814.45320299 2846.64155467 3816.9296875 2850.14453125 C3822.90402057 2858.59757697 3828.85199034 2867.06859593 3834.78417969 2875.55126953 C3840.01199197 2883.02389806 3845.2676338 2890.47659624 3850.53222656 2897.92333984 C3853.51806085 2902.14780865 3856.5003819 2906.37475921 3859.48291016 2910.6015625 C3862.07996389 2914.28164654 3864.67905286 2917.96026942 3867.28125 2921.63671875 C3867.82007812 2922.39855469 3868.35890625 2923.16039063 3868.9140625 2923.9453125 C3869.93944807 2925.39499554 3870.96544782 2926.84424444 3871.9921875 2928.29296875 C3874.72381233 2932.15648232 3877.39519791 2936.04979306 3880 2940 C3887.36961612 2928.36872089 3894.15720198 2916.39799619 3901.01220703 2904.45947266 C3904.1672263 2898.96860763 3907.33397963 2893.48452655 3910.5 2888 C3911.75006112 2885.83336859 3913.000061 2883.66670186 3914.25 2881.5 C3916.75 2877.16666667 3919.25 2872.83333333 3921.75 2868.5 C3922.36883057 2867.42733887 3922.98766113 2866.35467773 3923.62524414 2865.24951172 C3924.87435518 2863.08442929 3926.12354129 2860.91939018 3927.37280273 2858.75439453 C3930.51202309 2853.31384294 3933.64990563 2847.87252784 3936.78515625 2842.4296875 C3943.40222892 2830.9455118 3950.04633977 2819.47803106 3956.73291016 2808.03417969 C3962.89919054 2797.47379718 3969.0049595 2786.87873234 3975.10888672 2776.28222656 C3978.23680148 2770.85340058 3981.36858448 2765.42680719 3984.5 2760 C3985.75001879 2757.83334417 3987.00001878 2755.6666775 3988.25 2753.5 C3990.75 2749.16666667 3993.25 2744.83333333 3995.75 2740.5 C3996.36883057 2739.42733887 3996.98766113 2738.35467773 3997.62524414 2737.24951172 C3998.87435518 2735.08442929 4000.12354129 2732.91939018 4001.37280273 2730.75439453 C4004.51202309 2725.31384294 4007.64990563 2719.87252784 4010.78515625 2714.4296875 C4017.40222892 2702.9455118 4024.04633977 2691.47803106 4030.73291016 2680.03417969 C4036.89919054 2669.47379718 4043.0049595 2658.87873234 4049.10888672 2648.28222656 C4052.23680148 2642.85340058 4055.36858448 2637.42680719 4058.5 2632 C4059.75001879 2629.83334417 4061.00001878 2627.6666775 4062.25 2625.5 C4069.75 2612.5 4077.25 2599.5 4084.75 2586.5 C4085.36883057 2585.42733887 4085.98766113 2584.35467773 4086.62524414 2583.24951172 C4087.87435518 2581.08442929 4089.12354129 2578.91939018 4090.37280273 2576.75439453 C4093.51202309 2571.31384294 4096.64990563 2565.87252784 4099.78515625 2560.4296875 C4106.40222892 2548.9455118 4113.04633977 2537.47803106 4119.73291016 2526.03417969 C4125.89919054 2515.47379718 4132.0049595 2504.87873234 4138.10888672 2494.28222656 C4141.23680148 2488.85340058 4144.36858448 2483.42680719 4147.5 2478 C4148.75001879 2475.83334417 4150.00001878 2473.6666775 4151.25 2471.5 C4153.75 2467.16666667 4156.25 2462.83333333 4158.75 2458.5 C4159.36883057 2457.42733887 4159.98766113 2456.35467773 4160.62524414 2455.24951172 C4161.87435518 2453.08442929 4163.12354129 2450.91939018 4164.37280273 2448.75439453 C4167.51202309 2443.31384294 4170.64990563 2437.87252784 4173.78515625 2432.4296875 C4180.40222892 2420.9455118 4187.04633977 2409.47803106 4193.73291016 2398.03417969 C4199.89919054 2387.47379718 4206.0049595 2376.87873234 4212.10888672 2366.28222656 C4215.23680148 2360.85340058 4218.36858448 2355.42680719 4221.5 2350 C4222.75001879 2347.83334417 4224.00001878 2345.6666775 4225.25 2343.5 C4232.75 2330.5 4240.25 2317.5 4247.75 2304.5 C4248.36883057 2303.42733887 4248.98766113 2302.35467773 4249.62524414 2301.24951172 C4250.87435518 2299.08442929 4252.12354129 2296.91939018 4253.37280273 2294.75439453 C4256.51202309 2289.31384294 4259.64990563 2283.87252784 4262.78515625 2278.4296875 C4269.40222892 2266.9455118 4276.04633977 2255.47803106 4282.73291016 2244.03417969 C4288.89919054 2233.47379718 4295.0049595 2222.87873234 4301.10888672 2212.28222656 C4304.23680148 2206.85340058 4307.36858448 2201.42680719 4310.5 2196 C4311.75001879 2193.83334417 4313.00001878 2191.6666775 4314.25 2189.5 C4316.75 2185.16666667 4319.25 2180.83333333 4321.75 2176.5 C4322.36883057 2175.42733887 4322.98766113 2174.35467773 4323.62524414 2173.24951172 C4324.87435518 2171.08442929 4326.12354129 2168.91939018 4327.37280273 2166.75439453 C4330.51202309 2161.31384294 4333.64990563 2155.87252784 4336.78515625 2150.4296875 C4343.40222892 2138.9455118 4350.04633977 2127.47803106 4356.73291016 2116.03417969 C4362.89919054 2105.47379718 4369.0049595 2094.87873234 4375.10888672 2084.28222656 C4378.23680148 2078.85340058 4381.36858448 2073.42680719 4384.5 2068 C4385.75001879 2065.83334417 4387.00001878 2063.6666775 4388.25 2061.5 C4390.75 2057.16666667 4393.25 2052.83333333 4395.75 2048.5 C4396.67824585 2046.8910083 4396.67824585 2046.8910083 4397.62524414 2045.24951172 C4398.87435518 2043.08442929 4400.12354129 2040.91939018 4401.37280273 2038.75439453 C4404.51202309 2033.31384294 4407.64990563 2027.87252784 4410.78515625 2022.4296875 C4417.40222892 2010.9455118 4424.04633977 1999.47803106 4430.73291016 1988.03417969 C4436.89919054 1977.47379718 4443.0049595 1966.87873234 4449.10888672 1956.28222656 C4452.23680148 1950.85340058 4455.36858448 1945.42680719 4458.5 1940 C4459.75001879 1937.83334417 4461.00001878 1935.6666775 4462.25 1933.5 C4469.75 1920.5 4477.25 1907.5 4484.75 1894.5 C4485.67824585 1892.8910083 4485.67824585 1892.8910083 4486.62524414 1891.24951172 C4487.87435518 1889.08442929 4489.12354129 1886.91939018 4490.37280273 1884.75439453 C4493.51202309 1879.31384294 4496.64990563 1873.87252784 4499.78515625 1868.4296875 C4506.40222892 1856.9455118 4513.04633977 1845.47803106 4519.73291016 1834.03417969 C4525.89919054 1823.47379718 4532.0049595 1812.87873234 4538.10888672 1802.28222656 C4541.23680148 1796.85340058 4544.36858448 1791.42680719 4547.5 1786 C4548.75001879 1783.83334417 4550.00001878 1781.6666775 4551.25 1779.5 C4553.75 1775.16666667 4556.25 1770.83333333 4558.75 1766.5 C4559.67824585 1764.8910083 4559.67824585 1764.8910083 4560.62524414 1763.24951172 C4561.87435518 1761.08442929 4563.12354129 1758.91939018 4564.37280273 1756.75439453 C4567.51202309 1751.31384294 4570.64990563 1745.87252784 4573.78515625 1740.4296875 C4580.40222892 1728.9455118 4587.04633977 1717.47803106 4593.73291016 1706.03417969 C4599.89919054 1695.47379718 4606.0049595 1684.87873234 4612.10888672 1674.28222656 C4615.23680147 1668.8534006 4618.36856046 1663.42679331 4621.5 1658 C4625.00644483 1651.92283836 4628.51274701 1645.84559527 4632.01696777 1639.76715088 C4633.02619104 1638.01658759 4634.03553836 1636.26609589 4635.04492188 1634.515625 C4636.3016766 1632.33607835 4637.55820586 1630.15640168 4638.81445312 1627.9765625 C4641.76893191 1622.85326521 4644.73357885 1617.73618262 4647.71484375 1612.62841797 C4648.6428479 1611.0382637 4648.6428479 1611.0382637 4649.58959961 1609.41598511 C4650.2877478 1608.22007248 4650.2877478 1608.22007248 4651 1607 C4650.23223665 1607.00073204 4649.46447329 1607.00146408 4648.67344439 1607.0022183 C4583.46931108 1607.064317 4518.26517447 1607.12255053 4453.06103516 1607.17797852 C4451.76996954 1607.17907634 4450.47890392 1607.18017417 4449.1487151 1607.18130527 C4372.79714833 1607.24617142 4296.44557697 1607.30698008 4036.51141599 1607.4331182 C4034.21032103 1607.43382322 4031.90922607 1607.43453185 4029.60813111 1607.43524167 C3964.40573788 1607.45534795 3899.20334416 1607.47215724 3834.000949 1607.48455158 C3831.58773734 1607.48501031 3829.17452567 1607.48546925 3826.76131401 1607.48592833 C3825.96427257 1607.48607991 3825.16723112 1607.48623149 3824.3460369 1607.48638766 C3794.37607179 1607.49209616 3764.40610684 1607.498558 3734.43614198 1607.50546949 C3731.17984334 1607.50621971 3727.92354469 1607.50696133 3724.66724604 1607.50769516 C3647.79596222 1607.52502526 3570.92471825 1607.55590509 3494.0534668 1607.63085938 C3493.24424726 1607.63164746 3492.43502773 1607.63243555 3491.60128639 1607.63324751 C3464.69081226 1607.65947662 3437.78033947 1607.68702043 3410.86986684 1607.7147455 C3386.55527735 1607.73979209 3362.24068747 1607.76436668 3337.92609596 1607.78738499 C3336.7279894 1607.78851951 3336.7279894 1607.78851951 3335.50567866 1607.78967695 C3285.48998406 1607.83691494 3235.47430983 1607.86370918 3185.45859337 1607.86983395 C3184.30002514 1607.86997987 3184.30002514 1607.86997987 3183.1180515 1607.87012875 C3149.19833874 1607.8743849 3115.2786274 1607.87437629 3081.35891475 1607.86948973 C3067.71315212 1607.86754362 3054.06738945 1607.86622935 3040.42162672 1607.86526107 C3038.15904163 1607.86509525 3035.89645655 1607.86490895 3033.63387146 1607.86472044 C2999.01485028 1607.86198275 2964.39590676 1607.87335871 2929.7769208 1607.92562604 C2928.656617 1607.92731714 2928.656617 1607.92731714 2927.5136808 1607.9290424 C2915.49883502 1607.94726512 2903.48399114 1607.96666254 2891.46914754 1607.9862626 C2857.3673943 1608.04189297 2823.26573243 1608.08963494 2789.16392589 1608.07696807 C2788.4722165 1608.07671509 2787.78050712 1608.07646211 2787.06783684 1608.07620146 C2771.97821828 1608.07051412 2756.88860663 1608.06018708 2741.79899443 1608.04531745 C2735.78112732 1608.03946227 2729.7632597 1608.03424962 2723.74539185 1608.02923203 C2721.77767233 1608.02755845 2721.77767233 1608.02755845 2719.77020091 1608.02585107 C2698.96328725 1608.00972943 2678.15689293 1608.05091224 2657.35009064 1608.11577007 C2636.91106006 1608.17831163 2616.47276778 1608.18071665 2596.03372835 1608.11832128 C2584.0368823 1608.08353342 2572.04226165 1608.09571882 2560.04562252 1608.17617256 C2552.08849298 1608.22493006 2544.13300681 1608.21258517 2536.17598048 1608.149545 C2531.65733911 1608.11548862 2527.14306936 1608.10827779 2522.62471098 1608.17613742 C2496.60994561 1608.54203153 2496.60994561 1608.54203153 2490.63593243 1604.33528398 C2487.03893306 1600.40718971 2485.17062182 1596.1405163 2483.67574121 1591.07903944 C2482.6508548 1587.92579195 2481.02214164 1585.3743052 2479.26953125 1582.56640625 C2478.11644169 1580.56553379 2476.96410711 1578.56422606 2475.8125 1576.5625 C2474.5169472 1574.31379049 2473.22137368 1572.06509292 2471.92578125 1569.81640625 C2470.9505249 1568.12281982 2470.9505249 1568.12281982 2469.95556641 1566.39501953 C2466.80667946 1560.9283002 2463.65316736 1555.46425113 2460.5 1550 C2459.2499765 1547.83334689 2457.99997653 1545.66668021 2456.75 1543.5 C2456.13125 1542.4275 2455.5125 1541.355 2454.875 1540.25 C2329.25000001 1322.50000001 2329.25000001 1322.50000001 2327.37475586 1319.24951172 C2326.12564482 1317.08442929 2324.87645871 1314.91939018 2323.62719727 1312.75439453 C2320.48797691 1307.31384294 2317.35009437 1301.87252784 2314.21484375 1296.4296875 C2308.19252671 1285.97793801 2302.15330663 1275.53700452 2296.0625 1265.125 C2290.64041301 1255.85436069 2285.29675988 1246.54063301 2279.97976685 1237.20953369 C2275.36515971 1229.11292157 2270.70915114 1221.04211199 2266 1213 C2260.94369077 1204.36502443 2255.95392878 1195.69393681 2251 1187 C2245.46014067 1177.27875494 2239.86625068 1167.59105132 2234.21655273 1157.93310547 C2228.06233258 1147.40915375 2221.97630004 1136.84619863 2215.89111328 1126.28222656 C2212.76319852 1120.85340058 2209.63141552 1115.42680719 2206.5 1110 C2205.24998121 1107.83334417 2203.99998122 1105.6666775 2202.75 1103.5 C2202.13125 1102.4275 2201.5125 1101.355 2200.875 1100.25 C2077.12499927 885.74999874 2077.12499927 885.74999874 1983.37475586 723.24951172 C1982.12564482 721.08442929 1980.87645871 718.91939018 1979.62719727 716.75439453 C1976.48797691 711.31384294 1973.35009437 705.87252784 1970.21484375 700.4296875 C1964.19252671 689.97793801 1958.15330663 679.53700452 1952.0625 669.125 C1946.64041301 659.85436069 1941.29675988 650.54063301 1935.97976685 641.20953369 C1931.36515971 633.11292157 1926.70915114 625.04211199 1922 617 C1916.94369077 608.36502443 1911.95392878 599.69393681 1907 591 C1901.46014067 581.27875494 1895.86625068 571.59105132 1890.21655273 561.93310547 C1884.06233258 551.40915375 1877.97630004 540.84619863 1871.89111328 530.28222656 C1868.76319852 524.85340058 1865.63141552 519.42680719 1862.5 514 C1861.24998121 511.83334417 1859.99998122 509.6666775 1858.75 507.5 C1858.13125 506.4275 1857.5125 505.355 1856.875 504.25 C1795 397 1733.125 289.75 1639.37475586 127.24951172 C1638.12564482 125.08442929 1636.87645871 122.91939018 1635.62719727 120.75439453 C1632.48797691 115.31384294 1629.35009437 109.87252784 1626.21484375 104.4296875 C1620.19252671 93.97793801 1614.15330663 83.53700452 1608.0625 73.125 C1602.64451349 63.86137165 1597.30468872 54.55480363 1591.99185181 45.23068237 C1586.02626673 34.76330933 1579.97810515 24.34622511 1573.890625 13.94921875 C1573.39369141 13.09763184 1572.89675781 12.24604492 1572.38476562 11.36865234 C1571.50320764 9.86074056 1570.61698824 8.35553725 1569.72460938 6.85400391 C1567 2.21954356 1567 2.21954356 1567 0 C3094.24 0 4621.48 0 6195 0 C6193.57181199 4.28456404 6192.48701477 7.1910008 6190.26953125 10.921875 C6189.72176025 11.85112793 6189.17398926 12.78038086 6188.60961914 13.73779297 C6188.01656982 14.73182129 6187.42352051 15.72584961 6186.8125 16.75 C6185.53580222 18.91367549 6184.25978329 21.07775166 6182.984375 23.2421875 C6182.32501953 24.35819336 6181.66566406 25.47419922 6180.98632812 26.62402344 C6177.81074644 32.0212633 6174.6862344 37.44764 6171.5625 42.875 C6170.30341652 45.05991376 6169.04430177 47.24480949 6167.78515625 49.4296875 C6166.84760498 51.05729004 6166.84760498 51.05729004 6165.89111328 52.71777344 C6162.76319852 58.14659942 6159.63141552 63.57319281 6156.5 69 C6155.24998121 71.16665583 6153.99998122 73.3333225 6152.75 75.5 C6150.25 79.83333333 6147.75 84.16666667 6145.25 88.5 C6144.32175415 90.1089917 6144.32175415 90.1089917 6143.37475586 91.75048828 C6142.12564482 93.91557071 6140.87645871 96.08060982 6139.62719727 98.24560547 C6136.48797691 103.68615706 6133.35009437 109.12747216 6130.21484375 114.5703125 C6123.59777108 126.0544882 6116.95366023 137.52196894 6110.26708984 148.96582031 C6104.10080946 159.52620282 6097.9950405 170.12126766 6091.89111328 180.71777344 C6088.76319852 186.14659942 6085.63141552 191.57319281 6082.5 197 C6081.24998121 199.16665583 6079.99998122 201.3333225 6078.75 203.5 C6061.25 233.83333333 6043.75 264.16666667 6026.25 294.5 C6025.32175415 296.1089917 6025.32175415 296.1089917 6024.37475586 297.75048828 C6023.12564482 299.91557071 6021.87645871 302.08060982 6020.62719727 304.24560547 C6017.48797691 309.68615706 6014.35009437 315.12747216 6011.21484375 320.5703125 C6004.59777108 332.0544882 5997.95366023 343.52196894 5991.26708984 354.96582031 C5985.10080946 365.52620282 5978.9950405 376.12126766 5972.89111328 386.71777344 C5969.76319852 392.14659942 5966.63141552 397.57319281 5963.5 403 C5962.24998121 405.16665583 5960.99998122 407.3333225 5959.75 409.5 C5947.25 431.16666667 5934.75 452.83333333 5922.25 474.5 C5921.6307666 475.57338623 5921.0115332 476.64677246 5920.37353516 477.75268555 C5919.12858718 479.91049803 5917.8834711 482.06821353 5916.63818359 484.22583008 C5913.43447349 489.77716592 5910.2340637 495.33036541 5907.0390625 500.88671875 C5895.8002005 520.4218588 5895.8002005 520.4218588 5890.625 529.0625 C5890.07996826 529.97358521 5890.07996826 529.97358521 5889.52392578 530.90307617 C5887.1303105 534.8696895 5887.1303105 534.8696895 5886 536 C5882.975731 536.10060636 5879.97421786 536.1345363 5876.94942888 536.12730185 C5875.98076952 536.12891619 5875.01211016 536.13053054 5874.01409749 536.13219381 C5870.71597941 536.13644015 5867.41790527 536.13346243 5864.1197862 536.13061053 C5861.73850306 536.1321765 5859.35722018 536.13418115 5856.97593774 536.13658784 C5851.74884224 536.14084642 5846.52175546 536.14194712 5841.29465887 536.1403735 C5833.44665382 536.13803193 5825.59865856 536.14144996 5817.75065487 536.14601192 C5804.31790164 536.15365028 5790.88515107 536.15650182 5777.45239585 536.15683801 C5763.75394777 536.15720129 5750.05550267 536.15975492 5736.35705555 536.1649667 C5735.05710261 536.16545927 5735.05710261 536.16545927 5733.730888 536.1659618 C5729.30641149 536.16764816 5724.88193499 536.16936965 5720.4574585 536.17110313 C5688.08698012 536.18371021 5655.71650199 536.19137434 5623.34602165 536.19658089 C5590.51961173 536.20187697 5557.69320337 536.20934985 5524.86679459 536.21950912 C5523.83290477 536.21982812 5522.79901496 536.22014712 5521.73379515 536.22047579 C5512.2593649 536.22339984 5502.78493466 536.22634825 5493.31050443 536.22932569 C5469.54868138 536.23679193 5445.78685824 536.2439275 5422.02503502 536.25084388 C5420.93598257 536.25116111 5419.84693013 536.25147833 5418.72487609 536.25180517 C5364.99141921 536.26742743 5311.25796157 536.2792955 5257.52450371 536.29092598 C5238.60073431 536.29502457 5219.67696491 536.29914097 5200.75319552 536.30332303 C5199.57688231 536.30358298 5198.4005691 536.30384292 5197.18861003 536.30411075 C5142.72893515 536.31616731 5088.26926105 536.33078495 5033.80958699 536.34606133 C5030.24917911 536.34705992 5026.68877123 536.34805731 5023.12836335 536.34905439 C5001.65946677 536.3550678 4980.1905702 536.36110792 4958.72167364 536.36717889 C4905.34668368 536.38227109 4851.97169364 536.3970428 4798.59670353 536.41159725 C4796.77391003 536.41209454 4796.77391003 536.41209454 4794.91429242 536.41260186 C4716.18988613 536.4340764 4637.46547957 536.45423129 4558.74107265 536.47328281 C4557.48389354 536.47358707 4556.22671442 536.47389132 4554.93143896 536.47420479 C4516.66083417 536.48346392 4478.39022935 536.49262546 4440.11962453 536.50176792 C4397.76822624 536.51188566 4355.41682796 536.52202005 4313.06542969 536.53222656 C4311.15518066 536.53268684 4311.15518066 536.53268684 4309.20634075 536.53315642 C4188.2817579 536.56229892 4067.3571758 536.59412775 3946.43259381 536.62665245 C3941.31146494 536.62802967 3936.19033607 536.62940611 3931.06920719 536.63078251 C3883.94393071 536.64344846 3836.81865423 536.65614594 3789.69337776 536.66888306 C3788.4402882 536.66922174 3787.18719864 536.66956043 3785.89613666 536.66990938 C3782.10211871 536.67093483 3778.30810077 536.6719603 3774.51408282 536.67298577 C3672.01331441 536.70069005 3569.51254593 536.72811915 3467.0117774 536.75537 C3463.39513553 536.75633159 3459.77849367 536.75729339 3456.16185181 536.75825526 C3338.68550379 536.78949784 3221.20915566 536.82024465 2804.45092773 536.92407227 C2802.92516069 536.92444703 2802.92516069 536.92444703 2801.36857006 536.92482936 C2713.43763137 536.9464269 2625.50669266 536.96791384 2493 537 C2495.14973787 540.76832309 2497.30025052 544.53620272 2499.45141602 548.30371094 C2500.17980803 549.57963736 2500.90800511 550.85567509 2501.63598633 552.13183594 C2506.37978988 560.44740599 2511.16030512 568.73971231 2516 577 C2521.05425955 585.63617946 2526.04606122 594.30604564 2531 603 C2536.53985933 612.72124506 2542.13374932 622.40894868 2547.78344727 632.06689453 C2553.93766742 642.59084625 2560.02369996 653.15380137 2566.10888672 663.71777344 C2569.23680148 669.14659942 2572.36858448 674.57319281 2575.5 680 C2576.75001879 682.16665583 2578.00001878 684.3333225 2579.25 686.5 C2579.86875 687.5725 2580.4875 688.645 2581.125 689.75 C2736.75000002 959.50000003 2736.75000002 959.50000003 2738.62524414 962.75048828 C2739.87435518 964.91557071 2741.12354129 967.08060982 2742.37280273 969.24560547 C2745.51202309 974.68615706 2748.64990563 980.12747216 2751.78515625 985.5703125 C2757.80747325 996.02206192 2763.84668065 1006.46300293 2769.9375 1016.875 C2775.829168 1026.94828653 2781.63355931 1037.06965614 2787.40795898 1047.21044922 C2788.03516846 1048.31146973 2788.66237793 1049.41249023 2789.30859375 1050.546875 C2789.85314209 1051.50432617 2790.39769043 1052.46177734 2790.95874023 1053.44824219 C2791.27883756 1053.96772395 2791.59893489 1054.48720571 2791.92873214 1055.02242934 C2793 1057 2793 1057 2794.0740279 1059.91922969 C2795.67174331 1063.61778008 2797.15145671 1066.13059455 2800 1069 C2806.1815586 1070.85684291 2812.26818139 1070.60438088 2818.67559475 1070.49679399 C2820.63257101 1070.50788354 2822.58952328 1070.52423659 2824.5464168 1070.54537417 C2829.95746004 1070.58841853 2835.36589903 1070.55623525 2840.77684085 1070.5124185 C2846.6724057 1070.47789243 2852.56761846 1070.51297011 2858.46316883 1070.53926557 C2868.84657458 1070.57588875 2879.22936562 1070.56795981 2889.61273109 1070.53055301 C2900.8161316 1070.49043822 2912.01911034 1070.47674411 2923.22257299 1070.49485454 C2924.2871959 1070.49655139 2924.2871959 1070.49655139 2925.37332635 1070.49828252 C2928.99707244 1070.50417637 2932.62081767 1070.51049154 2936.2445628 1070.51695047 C2962.73179022 1070.56325695 2989.21873797 1070.55035348 3015.70595741 1070.50784111 C3042.56020553 1070.46493445 3069.41428223 1070.44821192 3096.26856232 1070.46369362 C3097.11483751 1070.46416981 3097.96111271 1070.46464601 3098.83303261 1070.46513663 C3106.58835249 1070.46951001 3114.34367217 1070.47417564 3122.09899167 1070.47918956 C3141.54789691 1070.49174974 3160.99680289 1070.50034256 3180.44571126 1070.50630426 C3181.3370228 1070.50658027 3182.22833434 1070.50685627 3183.14665532 1070.50714064 C3227.10751995 1070.52040013 3271.0683397 1070.4886135 3315.02918816 1070.4539566 C3330.50840753 1070.44178448 3345.98762704 1070.4298262 3361.46684718 1070.41865635 C3362.91017253 1070.41761461 3362.91017253 1070.41761461 3364.38265597 1070.41655183 C3408.94238355 1070.38465253 3453.50209554 1070.38351276 3498.06183205 1070.39026899 C3500.9755276 1070.39070922 3503.88922315 1070.39113496 3506.8029187 1070.391557 C3524.3723639 1070.39411542 3541.94180905 1070.39699449 3559.51125415 1070.40024378 C3603.19028282 1070.40830778 3646.86931142 1070.41252534 3690.5483408 1070.41413498 C3692.03995873 1070.41419281 3692.03995873 1070.41419281 3693.56171035 1070.41425181 C3757.97529236 1070.41671824 3822.38885943 1070.40334835 3886.80243587 1070.37672806 C3887.83096404 1070.37630313 3888.85949221 1070.37587821 3889.9191879 1070.37544041 C3921.22882223 1070.36247153 3952.53845602 1070.34833099 3983.84808973 1070.33396128 C4018.4961791 1070.31806453 4053.14426855 1070.30236764 4087.7923584 1070.28753662 C4089.35516608 1070.28686666 4089.35516608 1070.28686666 4090.94954564 1070.28618316 C4189.89257381 1070.24383301 4288.8355969 1070.2337381 4387.77863314 1070.23199087 C4391.96919966 1070.23191452 4396.15976618 1070.23182882 4400.35033271 1070.23174274 C4438.91265271 1070.23095138 4477.47497271 1070.23053872 4516.03729272 1070.23060168 C4517.06269415 1070.23060332 4518.08809558 1070.23060497 4519.14456979 1070.23060666 C4522.24920946 1070.23061172 4525.35384913 1070.23061694 4528.45848881 1070.23062215 C4612.33322489 1070.23076115 4696.20796074 1070.2275971 4780.08269664 1070.22229339 C4783.04209221 1070.22210709 4786.00148777 1070.22192333 4788.96088334 1070.22174034 C4885.08397664 1070.21578593 4981.20706648 1070.20388186 5322.19116211 1070.09863281 C5323.43946252 1070.09818324 5323.43946252 1070.09818324 5324.71298113 1070.09772458 C5407.81030755 1070.06779288 5490.90763311 1070.03585379 5577 1070 C5576.22179133 1073.3794677 5575.04033492 1075.98323917 5573.33203125 1079.015625 C5572.77588135 1080.0068335 5572.21973145 1080.99804199 5571.64672852 1082.01928711 C5570.7387854 1083.61848999 5570.7387854 1083.61848999 5569.8125 1085.25 C5569.184646 1086.36318604 5568.55679199 1087.47637207 5567.90991211 1088.62329102 C5562.54697604 1098.10260671 5557.0700557 1107.51428458 5551.5625 1116.91015625 C5547.8678669 1123.21570419 5544.21147319 1129.54294436 5540.5625 1135.875 C5539.93996338 1136.95515381 5539.31742676 1138.03530762 5538.67602539 1139.14819336 C5537.41423174 1141.33796334 5536.15259466 1143.52782355 5534.89111328 1145.71777344 C5531.76319852 1151.14659942 5528.63141552 1156.57319281 5525.5 1162 C5524.24998121 1164.16665583 5522.99998122 1166.3333225 5521.75 1168.5 C5489.25 1224.83333333 5456.75 1281.16666667 5424.25 1337.5 C5423.32175415 1339.1089917 5423.32175415 1339.1089917 5422.37475586 1340.75048828 C5421.12564482 1342.91557071 5419.87645871 1345.08060982 5418.62719727 1347.24560547 C5415.48797691 1352.68615706 5412.35009437 1358.12747216 5409.21484375 1363.5703125 C5403.19252671 1374.02206199 5397.15330663 1384.46299548 5391.0625 1394.875 C5385.64041301 1404.14563931 5380.29675988 1413.45936699 5374.97976685 1422.79046631 C5369.80621213 1431.86778636 5364.56857846 1440.90571533 5359.2890625 1449.921875 C5354.80833854 1457.5857377 5350.39493248 1465.28678835 5346 1473 C5340.48736165 1482.67481219 5334.91575433 1492.31282137 5329.2890625 1501.921875 C5324.80833735 1509.58573974 5320.39505776 1517.28685835 5316 1525 C5310.46014067 1534.72124506 5304.86625068 1544.40894868 5299.21655273 1554.06689453 C5293.06233258 1564.59084625 5286.97630004 1575.15380137 5280.89111328 1585.71777344 C5277.76319852 1591.14659942 5274.63141552 1596.57319281 5271.5 1602 C5270.24998121 1604.16665583 5268.99998122 1606.3333225 5267.75 1608.5 C5205.875 1715.75 5144 1823 4885.25 2271.5 C4884.63116943 2272.57266113 4884.01233887 2273.64532227 4883.37475586 2274.75048828 C4882.12564482 2276.91557071 4880.87645871 2279.08060982 4879.62719727 2281.24560547 C4876.48797691 2286.68615706 4873.35009437 2292.12747216 4870.21484375 2297.5703125 C4864.19252671 2308.02206199 4858.15330663 2318.46299548 4852.0625 2328.875 C4846.64041301 2338.14563931 4841.29675988 2347.45936699 4835.97976685 2356.79046631 C4830.80621213 2365.86778636 4825.56857846 2374.90571533 4820.2890625 2383.921875 C4815.80833854 2391.5857377 4811.39493248 2399.28678835 4807 2407 C4801.48736165 2416.67481219 4795.91575433 2426.31282137 4790.2890625 2435.921875 C4785.80833854 2443.5857377 4781.39493248 2451.28678835 4777 2459 C4771.48736165 2468.67481219 4765.91575433 2478.31282137 4760.2890625 2487.921875 C4755.80833735 2495.58573974 4751.39505776 2503.28685835 4747 2511 C4741.46014067 2520.72124506 4735.86625068 2530.40894868 4730.21655273 2540.06689453 C4724.06233258 2550.59084625 4717.97630004 2561.15380137 4711.89111328 2571.71777344 C4708.76319852 2577.14659942 4705.63141552 2582.57319281 4702.5 2588 C4701.24998121 2590.16665583 4699.99998122 2592.3333225 4698.75 2594.5 C4636.875 2701.75 4575 2809 4301.25 3283.5 C4300.63116943 3284.57266113 4300.01233887 3285.64532227 4299.37475586 3286.75048828 C4298.12564482 3288.91557071 4296.87645871 3291.08060982 4295.62719727 3293.24560547 C4292.48797691 3298.68615706 4289.35009437 3304.12747216 4286.21484375 3309.5703125 C4280.19252671 3320.02206199 4274.15330663 3330.46299548 4268.0625 3340.875 C4262.64041301 3350.14563931 4257.29675988 3359.45936699 4251.97976685 3368.79046631 C4246.80621213 3377.86778636 4241.56857846 3386.90571533 4236.2890625 3395.921875 C4231.80833854 3403.5857377 4227.39493248 3411.28678835 4223 3419 C4217.48736165 3428.67481219 4211.91575433 3438.31282137 4206.2890625 3447.921875 C4201.80833854 3455.5857377 4197.39493248 3463.28678835 4193 3471 C4187.48736165 3480.67481219 4181.91575433 3490.31282137 4176.2890625 3499.921875 C4171.80833854 3507.5857377 4167.39493248 3515.28678835 4163 3523 C4157.48736165 3532.67481219 4151.91575433 3542.31282137 4146.2890625 3551.921875 C4141.80833735 3559.58573974 4137.39505776 3567.28685835 4133 3575 C4127.46014067 3584.72124506 4121.86625068 3594.40894868 4116.21655273 3604.06689453 C4110.06233258 3614.59084625 4103.97630004 3625.15380137 4097.89111328 3635.71777344 C4094.76319852 3641.14659942 4091.63141552 3646.57319281 4088.5 3652 C4087.24998121 3654.16665583 4085.99998122 3656.3333225 4084.75 3658.5 C4027.25 3758.16666667 3969.75 3857.83333333 3912.25 3957.5 C3911.63036377 3958.57411133 3911.01072754 3959.64822266 3910.37231445 3960.75488281 C3909.13152967 3962.90542543 3907.89048465 3965.05581792 3906.64916992 3967.20605469 C3903.72980526 3972.26377813 3900.81303791 3977.32294493 3897.90567017 3982.38757324 C3896.53825234 3984.76923502 3895.16932961 3987.1500302 3893.80029297 3989.53076172 C3892.83935447 3991.20326021 3891.88058328 3992.87700336 3890.921875 3994.55078125 C3884.61921479 4005.50771361 3884.61921479 4005.50771361 3882 4009 C3881.34 4009 3880.68 4009 3880 4009 C3878.28439793 4006.42659689 3876.69074785 4003.85080104 3875.125 4001.1875 C3874.12370674 3999.51614103 3873.12106007 3997.84559227 3872.1171875 3996.17578125 C3871.59995117 3995.31291504 3871.08271484 3994.45004883 3870.54980469 3993.56103516 C3868.17137232 3989.6307019 3865.71406673 3985.75201938 3863.25 3981.875 C3858.70330185 3974.70351896 3854.18528414 3967.51476571 3849.6875 3960.3125 C3848.74245605 3958.79922119 3848.74245605 3958.79922119 3847.77832031 3957.25537109 C3846.49321202 3955.19717454 3845.2082191 3953.13890595 3843.92333984 3951.08056641 C3840.78410777 3946.05253513 3837.64192849 3941.02634659 3834.5 3936 C3833.24998536 3934.00000915 3831.99998538 3932.00000914 3830.75 3930 C3830.13125 3929.01 3829.5125 3928.02 3828.875 3927 C3808.24999995 3893.99999992 3808.24999995 3893.99999992 3806.37426758 3890.9987793 C3805.12676753 3889.00281172 3803.87920912 3887.00688061 3802.6315918 3885.01098633 C3799.46785818 3879.94959084 3796.30520439 3874.88752606 3793.14453125 3869.82421875 C3787.44978005 3860.70335707 3781.74952479 3851.58645829 3776 3842.5 C3769.60014247 3832.38576612 3763.26124107 3822.23370157 3756.92333984 3812.08056641 C3753.78410777 3807.05253513 3750.64192849 3802.02634659 3747.5 3797 C3746.24998536 3795.00000915 3744.99998538 3793.00000914 3743.75 3791 C3743.13125 3790.01 3742.5125 3789.02 3741.875 3788 C3706.25000004 3731.00000006 3706.25000004 3731.00000006 3704.37426758 3727.9987793 C3703.12676753 3726.00281172 3701.87920912 3724.00688061 3700.6315918 3722.01098633 C3697.46785818 3716.94959084 3694.30520439 3711.88752606 3691.14453125 3706.82421875 C3685.44978005 3697.70335707 3679.74952479 3688.58645829 3674 3679.5 C3667.60014247 3669.38576612 3661.26124107 3659.23370157 3654.92333984 3649.08056641 C3651.78410777 3644.05253513 3648.64192849 3639.02634659 3645.5 3634 C3644.24998536 3632.00000915 3642.99998538 3630.00000914 3641.75 3628 C3641.13125 3627.01 3640.5125 3626.02 3639.875 3625 C3619.25000003 3592.00000005 3619.25000003 3592.00000005 3617.37426758 3588.9987793 C3616.12676753 3587.00281172 3614.87920912 3585.00688061 3613.6315918 3583.01098633 C3610.46785818 3577.94959084 3607.30520439 3572.88752606 3604.14453125 3567.82421875 C3598.44978005 3558.70335707 3592.74952479 3549.58645829 3587 3540.5 C3580.60014247 3530.38576612 3574.26124107 3520.23370157 3567.92333984 3510.08056641 C3564.78410777 3505.05253513 3561.64192849 3500.02634659 3558.5 3495 C3557.24998536 3493.00000915 3555.99998538 3491.00000914 3554.75 3489 C3554.13125 3488.01 3553.5125 3487.02 3552.875 3486 C3532.25 3453 3532.25 3453 3530.37426758 3449.9987793 C3529.12676753 3448.00281172 3527.87920912 3446.00688061 3526.6315918 3444.01098633 C3523.46785818 3438.94959084 3520.30520439 3433.88752606 3517.14453125 3428.82421875 C3511.44978005 3419.70335707 3505.74952479 3410.58645829 3500 3401.5 C3493.60014247 3391.38576612 3487.26124107 3381.23370157 3480.92333984 3371.08056641 C3477.78410777 3366.05253513 3474.64192849 3361.02634659 3471.5 3356 C3470.24998536 3354.00000915 3468.99998538 3352.00000914 3467.75 3350 C3467.13125 3349.01 3466.5125 3348.02 3465.875 3347 C3430.24999996 3289.99999994 3430.24999996 3289.99999994 3428.37426758 3286.9987793 C3427.12676753 3285.00281172 3425.87920912 3283.00688061 3424.6315918 3281.01098633 C3421.46785818 3275.94959084 3418.30520439 3270.88752606 3415.14453125 3265.82421875 C3409.44978005 3256.70335707 3403.74952479 3247.58645829 3398 3238.5 C3391.60014247 3228.38576612 3385.26124107 3218.23370157 3378.92333984 3208.08056641 C3375.78410777 3203.05253513 3372.64192849 3198.02634659 3369.5 3193 C3368.24998536 3191.00000915 3366.99998538 3189.00000914 3365.75 3187 C3365.13125 3186.01 3364.5125 3185.02 3363.875 3184 C3343.25000005 3151.00000007 3343.25000005 3151.00000007 3341.37426758 3147.9987793 C3340.12676753 3146.00281172 3338.87920912 3144.00688061 3337.6315918 3142.01098633 C3334.46785818 3136.94959084 3331.30520439 3131.88752606 3328.14453125 3126.82421875 C3322.44978005 3117.70335707 3316.74952479 3108.58645829 3311 3099.5 C3304.60014247 3089.38576612 3298.26124107 3079.23370157 3291.92333984 3069.08056641 C3288.78410777 3064.05253513 3285.64192849 3059.02634659 3282.5 3054 C3281.24998536 3052.00000915 3279.99998538 3050.00000914 3278.75 3048 C3278.13125 3047.01 3277.5125 3046.02 3276.875 3045 C3241.25000004 2988.00000006 3241.25000004 2988.00000006 3239.37426758 2984.9987793 C3238.12676753 2983.00281172 3236.87920912 2981.00688061 3235.6315918 2979.01098633 C3232.46785818 2973.94959084 3229.30520439 2968.88752606 3226.14453125 2963.82421875 C3220.44978005 2954.70335707 3214.74952479 2945.58645829 3209 2936.5 C3202.60014247 2926.38576612 3196.26124107 2916.23370157 3189.92333984 2906.08056641 C3186.78410777 2901.05253513 3183.64192849 2896.02634659 3180.5 2891 C3179.24998536 2889.00000915 3177.99998538 2887.00000914 3176.75 2885 C3176.13125 2884.01 3175.5125 2883.02 3174.875 2882 C3154.25000003 2849.00000005 3154.25000003 2849.00000005 3152.37426758 2845.9987793 C3151.12676753 2844.00281172 3149.87920912 2842.00688061 3148.6315918 2840.01098633 C3145.46785818 2834.94959084 3142.30520439 2829.88752606 3139.14453125 2824.82421875 C3132.97995163 2814.95086764 3126.80632997 2805.08386976 3120.57543945 2795.25219727 C3117.71646442 2790.73587331 3114.88115342 2786.20567892 3112.0625 2781.6640625 C3111.38832031 2780.57931641 3110.71414062 2779.49457031 3110.01953125 2778.37695312 C3108.70171476 2776.25493722 3107.38648824 2774.13131006 3106.07421875 2772.00585938 C3105.17123047 2770.55276367 3105.17123047 2770.55276367 3104.25 2769.0703125 C3103.71890625 2768.21195801 3103.1878125 2767.35360352 3102.640625 2766.46923828 C3100.89986064 2763.8492843 3098.99814574 2761.42763847 3097 2759 C3096.7097998 2759.49064941 3096.41959961 2759.98129883 3096.12060547 2760.48681641 C3089.72717311 2771.27370988 3083.18251539 2781.94541805 3076.4230957 2792.50683594 C3072.094958 2799.27084222 3067.81353684 2806.06227785 3063.5625 2812.875 C3062.94012451 2813.87241211 3062.31774902 2814.86982422 3061.67651367 2815.89746094 C3060.41448094 2817.92075337 3059.15268121 2819.94419116 3057.89111328 2821.96777344 C3054.76456576 2826.98090541 3051.63199839 2831.99027243 3048.5 2837 C3047.24997074 2838.99998171 3045.99997074 2840.99998172 3044.75 2843 C3022.25 2879 2999.75 2915 2977.25 2951 C2976.6310083 2951.99040283 2976.0120166 2952.98080566 2975.37426758 2954.0012207 C2974.12676753 2955.99718828 2972.87920912 2957.99311939 2971.6315918 2959.98901367 C2968.46785818 2965.05040916 2965.30520439 2970.11247394 2962.14453125 2975.17578125 C2955.97142253 2985.06279278 2949.78374244 2994.93984891 2943.55126953 3004.78955078 C2937.6375846 3014.14256726 2931.78295976 3023.5324913 2925.92333984 3032.91943359 C2922.78410777 3037.94746487 2919.64192849 3042.97365341 2916.5 3048 C2915.24998536 3049.99999085 2913.99998538 3051.99999086 2912.75 3054 C2860.25 3138 2807.75 3222 2755.25 3306 C2754.6310083 3306.99040283 2754.0120166 3307.98080566 2753.37426758 3309.0012207 C2752.12676753 3310.99718828 2750.87920912 3312.99311939 2749.6315918 3314.98901367 C2746.46785818 3320.05040916 2743.30520439 3325.11247394 2740.14453125 3330.17578125 C2733.97142253 3340.06279278 2727.78374244 3349.93984891 2721.55126953 3359.78955078 C2715.6375846 3369.14256726 2709.78295976 3378.5324913 2703.92333984 3387.91943359 C2700.78410777 3392.94746487 2697.64192849 3397.97365341 2694.5 3403 C2693.24998536 3404.99999085 2691.99998538 3406.99999086 2690.75 3409 C2643.25 3485 2595.75 3561 2548.25 3637 C2547.6310083 3637.99040283 2547.0120166 3638.98080566 2546.37426758 3640.0012207 C2545.12676753 3641.99718828 2543.87920912 3643.99311939 2542.6315918 3645.98901367 C2539.46785818 3651.05040916 2536.30520439 3656.11247394 2533.14453125 3661.17578125 C2526.97142253 3671.06279278 2520.78374244 3680.93984891 2514.55126953 3690.78955078 C2508.6375846 3700.14256726 2502.78295976 3709.5324913 2496.92333984 3718.91943359 C2493.78410777 3723.94746487 2490.64192849 3728.97365341 2487.5 3734 C2486.24998536 3735.99999085 2484.99998538 3737.99999086 2483.75 3740 C2441.25 3808 2398.75 3876 2356.25 3944 C2355.63116943 3944.99016113 2355.01233887 3945.98032227 2354.37475586 3947.00048828 C2353.12568672 3948.99893384 2351.87650066 3950.99730634 2350.62719727 3952.99560547 C2347.48698864 3958.01879335 2344.34887082 3963.0432652 2341.21484375 3968.0703125 C2338.11039924 3973.04919146 2334.9972747 3978.02256539 2331.88037109 3982.99365234 C2329.92976089 3986.11229867 2327.99039642 3989.23778737 2326.05078125 3992.36328125 C2324.78430365 3994.38830201 2323.5173927 3996.41305184 2322.25 3998.4375 C2321.66532959 3999.3857666 2321.08065918 4000.3340332 2320.47827148 4001.31103516 C2319.93372314 4002.17647949 2319.3891748 4003.04192383 2318.828125 4003.93359375 C2318.3527832 4004.69728271 2317.87744141 4005.46097168 2317.38769531 4006.24780273 C2316 4008 2316 4008 2313 4009 C2312.64921387 4008.36835938 2312.29842773 4007.73671875 2311.93701172 4007.0859375 C2304.88024864 3994.39427938 2297.74112159 3981.76263087 2290.39404297 3969.23632812 C2285.87399656 3961.52204876 2281.42545469 3953.76871892 2277 3946 C2271.46046897 3936.27857016 2265.86624813 3926.59104696 2260.21655273 3916.93310547 C2254.06233258 3906.40915375 2247.97630004 3895.84619863 2241.89111328 3885.28222656 C2238.76319852 3879.85340058 2235.63141552 3874.42680719 2232.5 3869 C2231.24998121 3866.83334417 2229.99998122 3864.6666775 2228.75 3862.5 C2228.13125 3861.4275 2227.5125 3860.355 2226.875 3859.25 C2086.24999998 3615.49999997 2086.24999998 3615.49999997 2084.37475586 3612.24951172 C2083.12564482 3610.08442929 2081.87645871 3607.91939018 2080.62719727 3605.75439453 C2077.48797691 3600.31384294 2074.35009437 3594.87252784 2071.21484375 3589.4296875 C2065.19252671 3578.97793801 2059.15330663 3568.53700452 2053.0625 3558.125 C2047.64041301 3548.85436069 2042.29675988 3539.54063301 2036.97976685 3530.20953369 C2032.36515971 3522.11292157 2027.70915114 3514.04211199 2023 3506 C2017.94369077 3497.36502443 2012.95392878 3488.69393681 2008 3480 C2002.46014067 3470.27875494 1996.86625068 3460.59105132 1991.21655273 3450.93310547 C1985.06233258 3440.40915375 1978.97630004 3429.84619863 1972.89111328 3419.28222656 C1969.76319852 3413.85340058 1966.63141552 3408.42680719 1963.5 3403 C1962.24998121 3400.83334417 1960.99998122 3398.6666775 1959.75 3396.5 C1959.13125 3395.4275 1958.5125 3394.355 1957.875 3393.25 C1817.25000001 3149.50000002 1817.25000001 3149.50000002 1815.37475586 3146.24951172 C1814.12564482 3144.08442929 1812.87645871 3141.91939018 1811.62719727 3139.75439453 C1808.48797691 3134.31384294 1805.35009437 3128.87252784 1802.21484375 3123.4296875 C1796.19252671 3112.97793801 1790.15330663 3102.53700452 1784.0625 3092.125 C1778.64041301 3082.85436069 1773.29675988 3073.54063301 1767.97976685 3064.20953369 C1763.36515971 3056.11292157 1758.70915114 3048.04211199 1754 3040 C1748.94369077 3031.36502443 1743.95392878 3022.69393681 1739 3014 C1733.46014067 3004.27875494 1727.86625068 2994.59105132 1722.21655273 2984.93310547 C1716.06233258 2974.40915375 1709.97630004 2963.84619863 1703.89111328 2953.28222656 C1700.76319852 2947.85340058 1697.63141552 2942.42680719 1694.5 2937 C1693.24998121 2934.83334417 1691.99998122 2932.6666775 1690.75 2930.5 C1690.13125 2929.4275 1689.5125 2928.355 1688.875 2927.25 C1548.24999998 2683.49999996 1548.24999998 2683.49999996 1546.37475586 2680.24951172 C1545.12564482 2678.08442929 1543.87645871 2675.91939018 1542.62719727 2673.75439453 C1539.48797691 2668.31384294 1536.35009437 2662.87252784 1533.21484375 2657.4296875 C1527.19252671 2646.97793801 1521.15330663 2636.53700452 1515.0625 2626.125 C1509.64041301 2616.85436069 1504.29675988 2607.54063301 1498.97976685 2598.20953369 C1494.36515971 2590.11292157 1489.70915114 2582.04211199 1485 2574 C1479.94369077 2565.36502443 1474.95392878 2556.69393681 1470 2548 C1464.46014067 2538.27875494 1458.86625068 2528.59105132 1453.21655273 2518.93310547 C1447.06233258 2508.40915375 1440.97630004 2497.84619863 1434.89111328 2487.28222656 C1431.76319852 2481.85340058 1428.63141552 2476.42680719 1425.5 2471 C1424.24998121 2468.83334417 1422.99998122 2466.6666775 1421.75 2464.5 C1421.13125 2463.4275 1420.5125 2462.355 1419.875 2461.25 C1279.25000001 2217.50000002 1279.25000001 2217.50000002 1277.37475586 2214.24951172 C1276.12564482 2212.08442929 1274.87645871 2209.91939018 1273.62719727 2207.75439453 C1270.48797691 2202.31384294 1267.35009437 2196.87252784 1264.21484375 2191.4296875 C1258.19252671 2180.97793801 1252.15330663 2170.53700452 1246.0625 2160.125 C1240.64041301 2150.85436069 1235.29675988 2141.54063301 1229.97976685 2132.20953369 C1225.36515971 2124.11292157 1220.70915114 2116.04211199 1216 2108 C1210.94369077 2099.36502443 1205.95392878 2090.69393681 1201 2082 C1195.46014067 2072.27875494 1189.86625068 2062.59105132 1184.21655273 2052.93310547 C1178.06233258 2042.40915375 1171.97630004 2031.84619863 1165.89111328 2021.28222656 C1162.76319852 2015.85340058 1159.63141552 2010.42680719 1156.5 2005 C1155.24998121 2002.83334417 1153.99998122 2000.6666775 1152.75 1998.5 C1152.13125 1997.4275 1151.5125 1996.355 1150.875 1995.25 C1010.24999998 1751.49999996 1010.24999998 1751.49999996 1008.37475586 1748.24951172 C1007.12564482 1746.08442929 1005.87645871 1743.91939018 1004.62719727 1741.75439453 C1001.48797691 1736.31384294 998.35009437 1730.87252784 995.21484375 1725.4296875 C989.19252671 1714.97793801 983.15330663 1704.53700452 977.0625 1694.125 C971.64078822 1684.85500223 966.29795085 1675.54168248 960.98077393 1666.21154785 C955.77954871 1657.0871716 950.51972122 1647.99867226 945.21655273 1638.93310547 C939.06233258 1628.40915375 932.97630004 1617.84619863 926.89111328 1607.28222656 C923.76319852 1601.85340058 920.63141552 1596.42680719 917.5 1591 C916.24998121 1588.83334417 914.99998122 1586.6666775 913.75 1584.5 C912.821875 1582.89125 912.821875 1582.89125 911.875 1581.25 C741.25 1285.50000001 741.25 1285.50000001 739.37475586 1282.24951172 C738.12564482 1280.08442929 736.87645871 1277.91939018 735.62719727 1275.75439453 C732.48797691 1270.31384294 729.35009437 1264.87252784 726.21484375 1259.4296875 C720.19252671 1248.97793801 714.15330663 1238.53700452 708.0625 1228.125 C702.64078822 1218.85500223 697.29795085 1209.54168248 691.98077393 1200.21154785 C686.77954871 1191.0871716 681.51972122 1181.99867226 676.21655273 1172.93310547 C670.06233258 1162.40915375 663.97630004 1151.84619863 657.89111328 1141.28222656 C654.76319852 1135.85340058 651.63141552 1130.42680719 648.5 1125 C647.24998121 1122.83334417 645.99998122 1120.6666775 644.75 1118.5 C643.821875 1116.89125 643.821875 1116.89125 642.875 1115.25 C472.25 819.50000001 472.25 819.50000001 470.37475586 816.24951172 C469.12564482 814.08442929 467.87645871 811.91939018 466.62719727 809.75439453 C463.48797691 804.31384294 460.35009437 798.87252784 457.21484375 793.4296875 C451.19252671 782.97793801 445.15330663 772.53700452 439.0625 762.125 C433.64078822 752.85500223 428.29795085 743.54168248 422.98077393 734.21154785 C417.77954871 725.0871716 412.51972122 715.99867226 407.21655273 706.93310547 C401.06233258 696.40915375 394.97630004 685.84619863 388.89111328 675.28222656 C385.76319852 669.85340058 382.63141552 664.42680719 379.5 659 C378.24998121 656.83334417 376.99998122 654.6666775 375.75 652.5 C375.13125 651.4275 374.5125 650.355 373.875 649.25 C218.25 379.5 218.25 379.5 216.37475586 376.24951172 C215.12564482 374.08442929 213.87645871 371.91939018 212.62719727 369.75439453 C209.48797691 364.31384294 206.35009437 358.87252784 203.21484375 353.4296875 C197.19252671 342.97793801 191.15330663 332.53700452 185.0625 322.125 C179.64041301 312.85436069 174.29675988 303.54063301 168.97976685 294.20953369 C164.36515971 286.11292157 159.70915114 278.04211199 155 270 C149.94369077 261.36502443 144.95392878 252.69393681 140 244 C134.46014067 234.27875494 128.86625068 224.59105132 123.21655273 214.93310547 C117.06233258 204.40915375 110.97630004 193.84619863 104.89111328 183.28222656 C101.76319852 177.85340058 98.63141552 172.42680719 95.5 167 C94.24998121 164.83334417 92.99998122 162.6666775 91.75 160.5 C91.13125 159.4275 90.5125 158.355 89.875 157.25 C39.25 69.5 39.25 69.5 37.37451172 66.24902344 C36.12628966 64.08552524 34.87791761 61.92211357 33.62939453 59.75878906 C30.47594744 54.29434983 27.32523904 48.82836355 24.1796875 43.359375 C22.91160887 41.15616335 21.64338094 38.95303763 20.375 36.75 C19.76197021 35.68458984 19.14894043 34.61917969 18.51733398 33.52148438 C15.434693 28.17600591 12.32601637 22.84820041 9.16796875 17.546875 C8.56098145 16.52754883 7.95399414 15.50822266 7.32861328 14.45800781 C6.17616278 12.52780456 5.01976421 10.59995149 3.85888672 8.67480469 C3.09535889 7.39718262 3.09535889 7.39718262 2.31640625 6.09375 C1.86724854 5.34802734 1.41809082 4.60230469 0.95532227 3.83398438 C0 2 0 2 0 0 Z " fill="#0DBDD9" transform="translate(1069,2162)"/>
<path d="M0 0 C203.28 0 406.56 0 616 0 C616 0.99 616 1.98 616 3 C615.67 2.67 615.34 2.34 615 2 C613.65453793 1.90322096 612.3040298 1.87552569 610.9550916 1.8758015 C610.07636165 1.87355421 609.19763171 1.87130692 608.29227358 1.86899152 C607.31389873 1.87161854 606.33552387 1.87424555 605.3275013 1.87695217 C604.29396155 1.87579833 603.2604218 1.87464448 602.19556266 1.87345567 C598.68570818 1.87078055 595.17589836 1.8753185 591.66604614 1.87974548 C589.14294323 1.87930996 586.61984037 1.87843541 584.09673774 1.87715632 C578.58695901 1.87537859 573.07719443 1.8767362 567.56741714 1.88079453 C559.37433306 1.88681257 551.1812558 1.88713191 542.98816991 1.88625254 C529.20746486 1.8849364 515.4267646 1.88828857 501.64606094 1.89426994 C487.99289044 1.90018078 474.33972192 1.90403463 460.68655014 1.90512276 C459.41463997 1.90522587 459.41463997 1.90522587 458.11703464 1.90533106 C453.81096845 1.90566938 449.50490226 1.90597077 445.19883607 1.90625793 C414.67080472 1.9083603 384.14277598 1.91510283 353.61474609 1.92456055 C323.95849623 1.93373757 294.30224709 1.94082503 264.64599609 1.94506836 C263.27592384 1.94526565 263.27592384 1.94526565 261.87817336 1.94546692 C252.70555779 1.94678545 243.53294221 1.94806129 234.36032662 1.94930578 C215.66566327 1.95184309 196.97099996 1.95466412 178.27633667 1.95765686 C177.41650737 1.95779415 176.55667807 1.95793144 175.67079333 1.95807289 C123.58070396 1.96641964 71.4906159 1.98031316 19.40052807 1.9953379 C18.29978017 1.99565501 17.19903226 1.99597211 16.06492835 1.99629882 C14.03448476 1.99688574 12.00404117 1.99747681 9.97359759 1.99807289 C8.64799211 1.99845723 8.64799211 1.99845723 7.29560673 1.99884933 C6.53261728 1.99907307 5.76962782 1.99929681 4.98351748 1.99952733 C3.32234502 1.99992319 1.6611725 2 0 2 C0 1.34 0 0.68 0 0 Z " fill="#37E8D2" transform="translate(1069,2162)"/>
</svg>
