<?xml version="1.0" encoding="UTF-8"?>
<svg version="1.1" xmlns="http://www.w3.org/2000/svg" width="512" height="512">
<path d="M0 0 C0.81949127 -0.00626404 1.63898254 -0.01252808 2.48330688 -0.01898193 C11.2133427 -0.06119987 19.75399047 0.29340179 28.37890625 1.71484375 C29.40950417 1.87624596 29.40950417 1.87624596 30.46092224 2.04090881 C35.68795443 3.01107628 40.30404816 4.90654909 43.4140625 9.3828125 C45.09585631 14.71187 44.80723787 19.86209297 42.4375 24.875 C38.42853362 29.20046373 33.39860709 30.73971386 27.89648438 32.42724609 C13.93213917 36.71680957 2.1415971 42.78423452 -8.9375 52.4375 C-9.90816406 53.20835938 -10.87882813 53.97921875 -11.87890625 54.7734375 C-15.13096272 57.48442748 -17.72548149 60.53572788 -20.3125 63.875 C-21.02249146 64.79079834 -21.02249146 64.79079834 -21.74682617 65.72509766 C-37.73138793 86.79111297 -45.90182024 112.4700577 -42.62841797 138.93652344 C-39.53793175 159.59502262 -31.62864615 180.39390806 -16.203125 195.08984375 C-14.9375 196.4375 -14.9375 196.4375 -14.9375 198.4375 C-14.34839844 198.70304688 -13.75929687 198.96859375 -13.15234375 199.2421875 C-10.87937646 200.46886826 -9.35956649 201.7816234 -7.5 203.5625 C12.30035636 221.16688339 39.11459849 227.86962048 65.0625 226.4375 C90.64547885 224.12093105 115.21164405 211.62630357 131.875 192.0625 C139.92213479 181.69719978 146.56786386 170.43118227 150.5234375 157.890625 C150.77915527 157.08520264 151.03487305 156.27978027 151.29833984 155.44995117 C151.79779736 153.84865526 152.28065958 152.24206332 152.74462891 150.63012695 C154.23263021 145.79543349 155.60452309 143.23087976 160.0625 140.4375 C163.77998473 138.57875764 168.00535813 139.00124819 172.0625 139.4375 C175.98055762 141.21843528 177.5843084 142.65189952 179.8125 146.3125 C183.97384332 157.90589913 183.46660692 171.1633015 183.4375 183.3125 C183.43668427 184.59708603 183.43668427 184.59708603 183.43585205 185.90762329 C183.39464918 200.06212727 182.46644144 213.64436411 179.0625 227.4375 C178.74901611 228.71947266 178.74901611 228.71947266 178.42919922 230.02734375 C170.97468303 259.3763603 156.70598124 286.12055611 136.078125 308.26953125 C134.15340389 310.33972547 132.32502513 312.46703109 130.5 314.625 C108.32206635 340.01584716 74.32251342 356.56224357 42.0625 364.4375 C41.2051123 364.64777832 40.34772461 364.85805664 39.46435547 365.07470703 C-7.80148461 376.05039301 -59.02672473 366.28377576 -100.03125 340.9765625 C-108.90998963 335.31178707 -116.92768825 328.65892831 -124.6640625 321.5234375 C-126.7764424 319.5852745 -128.93748072 317.72726729 -131.125 315.875 C-156.60220916 293.61951741 -172.87965104 259.73102267 -180.9375 227.4375 C-181.14777832 226.62313477 -181.35805664 225.80876953 -181.57470703 224.96972656 C-188.0400293 198.8320104 -187.658052 167.46483318 -180.9375 141.4375 C-180.72851074 140.59993164 -180.51952148 139.76236328 -180.30419922 138.89941406 C-172.78584792 109.51307918 -158.62569568 82.80245562 -137.953125 60.60546875 C-136.02840389 58.53527453 -134.20002513 56.40796891 -132.375 54.25 C-110.19116046 28.85239137 -76.20004758 12.3267391 -43.9375 4.4375 C-43.08542969 4.22722168 -42.23335937 4.01694336 -41.35546875 3.80029297 C-27.64506593 0.59358209 -14.01512557 0.05021257 0 0 Z M-110.9375 72.4375 C-112.02417969 73.4275 -112.02417969 73.4275 -113.1328125 74.4375 C-124.86372583 85.53771906 -133.59494634 99.15951169 -140.9375 113.4375 C-141.25557617 114.04384277 -141.57365234 114.65018555 -141.90136719 115.27490234 C-149.88435648 130.64445069 -154.34468285 147.37134531 -156.9375 164.4375 C-157.06898438 165.26507813 -157.20046875 166.09265625 -157.3359375 166.9453125 C-161.13732617 196.43175974 -154.91710247 226.92508878 -141.9375 253.4375 C-141.49349854 254.36804199 -141.49349854 254.36804199 -141.04052734 255.31738281 C-123.8973561 290.93739178 -91.03916859 319.19213262 -53.99804688 332.48876953 C-13.5018053 346.17095093 29.51839829 344.30742147 68.0625 325.4375 C68.68286133 325.14149902 69.30322266 324.84549805 69.94238281 324.54052734 C84.59418361 317.48891963 97.32587474 307.63967055 109.0625 296.4375 C109.69800781 295.86515625 110.33351563 295.2928125 110.98828125 294.703125 C122.79126953 283.65767841 131.76194649 269.74731312 139.0625 255.4375 C139.37912598 254.83260742 139.69575195 254.22771484 140.02197266 253.60449219 C143.97371191 245.99816797 146.93761307 238.26158353 149.4375 230.0625 C149.68846436 229.24233398 149.93942871 228.42216797 150.19799805 227.57714844 C151.7609648 222.19256726 152.58109503 217.02403676 153.0625 211.4375 C149.86738461 214.13559744 146.70460849 216.82586802 143.67578125 219.7109375 C119.29016454 242.82077457 87.53425391 254.52555046 54.0625 254.4375 C19.07378309 253.40186544 -13.14978933 239.45786631 -37.5 214.2265625 C-61.06261251 187.26549626 -72.7586258 153.62808438 -70.66625977 117.8762207 C-68.2957247 87.39406933 -55.35028811 60.09583852 -34.3828125 38.05859375 C-32.09555077 35.60691225 -29.99477636 33.08325309 -27.9375 30.4375 C-57.97277218 29.535649 -90.25123455 52.93529689 -110.9375 72.4375 Z M153.0625 209.4375 C154.0625 211.4375 154.0625 211.4375 154.0625 211.4375 Z " fill="#FFFFFF" transform="translate(256.9375,71.5625)"/>
</svg>
